<svg xmlns="http://www.w3.org/2000/svg" viewBox="0 0 1200 1500" font-family="'Segoe UI','Apple SD Gothic Neo',sans-serif">
  <defs>
    <filter id="shadow" x="-2%" y="-2%" width="104%" height="104%">
      <feDropShadow dx="0" dy="2" stdDeviation="4" flood-opacity="0.08"/>
    </filter>
    <linearGradient id="headerGrad" x1="0" y1="0" x2="1" y2="0">
      <stop offset="0%" stop-color="#3B82F6"/>
      <stop offset="100%" stop-color="#6366F1"/>
    </linearGradient>
    <linearGradient id="phaseGrad" x1="0" y1="0" x2="0" y2="1">
      <stop offset="0%" stop-color="#F8FAFC"/>
      <stop offset="100%" stop-color="#EFF6FF"/>
    </linearGradient>
  </defs>

  <!-- Background -->
  <rect width="1200" height="1500" fill="#F8FAFC"/>

  <!-- Header -->
  <rect x="40" y="30" width="1120" height="80" rx="16" fill="url(#headerGrad)" filter="url(#shadow)"/>
  <text x="600" y="62" text-anchor="middle" fill="#fff" font-size="22" font-weight="800">SK Chemical Compliance RiskOps Dashboard</text>
  <text x="600" y="86" text-anchor="middle" fill="#C7D2FE" font-size="13" font-weight="600">v11.0 — Single-File SPA Architecture (index.html ~8,400 lines)</text>

  <!-- ═══ ROW 1: File Structure ═══ -->
  <rect x="40" y="130" width="1120" height="130" rx="14" fill="#fff" stroke="#E2E8F0" filter="url(#shadow)"/>
  <text x="60" y="156" fill="#1E293B" font-size="14" font-weight="800">📄 Single-File Structure</text>

  <rect x="60" y="168" width="220" height="76" rx="10" fill="#DBEAFE" stroke="#93C5FD"/>
  <text x="170" y="190" text-anchor="middle" fill="#1D4ED8" font-size="13" font-weight="800">CSS (~600 lines)</text>
  <text x="170" y="206" text-anchor="middle" fill="#3B82F6" font-size="10">Design tokens · Responsive</text>
  <text x="170" y="220" text-anchor="middle" fill="#3B82F6" font-size="10">split-view · form-panel · badge</text>
  <text x="170" y="234" text-anchor="middle" fill="#3B82F6" font-size="10">pulse animation · collapsible</text>

  <rect x="300" y="168" width="220" height="76" rx="10" fill="#FCE7F3" stroke="#F9A8D4"/>
  <text x="410" y="190" text-anchor="middle" fill="#BE185D" font-size="13" font-weight="800">HTML (~650 lines)</text>
  <text x="410" y="206" text-anchor="middle" fill="#DB2777" font-size="10">Login · App Shell · 19 Views</text>
  <text x="410" y="220" text-anchor="middle" fill="#DB2777" font-size="10">Sidebar · Drawer · Bottom Nav</text>
  <text x="410" y="234" text-anchor="middle" fill="#DB2777" font-size="10">Excel Modal · Phase Views</text>

  <rect x="540" y="168" width="600" height="76" rx="10" fill="#FEF3C7" stroke="#FCD34D"/>
  <text x="840" y="190" text-anchor="middle" fill="#92400E" font-size="13" font-weight="800">JavaScript (~7,100 lines)</text>
  <text x="660" y="208" fill="#A16207" font-size="10">CONFIG · X/Z Matrix · A/B/Y Labels</text>
  <text x="660" y="222" fill="#A16207" font-size="10">SP Helpers · UI Framework · Nav</text>
  <text x="660" y="236" fill="#A16207" font-size="10">Dashboard · Master (3-tab) · Excel I/O</text>
  <text x="900" y="208" fill="#A16207" font-size="10">7 Phase Pages · Monthly/Eval/Teams</text>
  <text x="900" y="222" fill="#A16207" font-size="10">Archive/Snapshot · Reports (PPT)</text>
  <text x="900" y="236" fill="#A16207" font-size="10">Monkey-patches · Claude AI (opt)</text>

  <!-- ═══ ROW 2: Scoring + Data Model ═══ -->
  <rect x="40" y="280" width="540" height="180" rx="14" fill="#fff" stroke="#E2E8F0" filter="url(#shadow)"/>
  <text x="60" y="306" fill="#1E293B" font-size="14" font-weight="800">📊 5-Level Scoring (VL/L/M/H/VH)</text>

  <rect x="60" y="318" width="250" height="125" rx="8" fill="#F1F5F9"/>
  <text x="185" y="336" text-anchor="middle" fill="#334155" font-size="11" font-weight="700">X = X_MATRIX[A][B] (5×5)</text>
  <g transform="translate(78,346)" font-size="9" text-anchor="middle">
    <text x="0" y="0" fill="#64748B" font-weight="600">A\B</text>
    <text x="30" y="0" fill="#64748B">1</text><text x="60" y="0" fill="#64748B">2</text><text x="90" y="0" fill="#64748B">3</text><text x="120" y="0" fill="#64748B">4</text><text x="150" y="0" fill="#64748B">5</text>
    <text x="0" y="16" fill="#64748B" font-weight="600">5</text>
    <rect x="18" y="8" width="24" height="13" rx="3" fill="#F59E0B"/><text x="30" y="18" fill="#fff" font-weight="800">M</text>
    <rect x="48" y="8" width="24" height="13" rx="3" fill="#F97316"/><text x="60" y="18" fill="#fff" font-weight="800">H</text>
    <rect x="78" y="8" width="24" height="13" rx="3" fill="#EF4444"/><text x="90" y="18" fill="#fff" font-weight="800">VH</text>
    <rect x="108" y="8" width="24" height="13" rx="3" fill="#EF4444"/><text x="120" y="18" fill="#fff" font-weight="800">VH</text>
    <rect x="138" y="8" width="24" height="13" rx="3" fill="#EF4444"/><text x="150" y="18" fill="#fff" font-weight="800">VH</text>
    <text x="0" y="34" fill="#64748B" font-weight="600">3</text>
    <rect x="18" y="26" width="24" height="13" rx="3" fill="#84CC16"/><text x="30" y="36" fill="#fff" font-weight="800">L</text>
    <rect x="48" y="26" width="24" height="13" rx="3" fill="#F59E0B"/><text x="60" y="36" fill="#fff" font-weight="800">M</text>
    <rect x="78" y="26" width="24" height="13" rx="3" fill="#F97316"/><text x="90" y="36" fill="#fff" font-weight="800">H</text>
    <rect x="108" y="26" width="24" height="13" rx="3" fill="#F97316"/><text x="120" y="36" fill="#fff" font-weight="800">H</text>
    <rect x="138" y="26" width="24" height="13" rx="3" fill="#EF4444"/><text x="150" y="36" fill="#fff" font-weight="800">VH</text>
    <text x="0" y="52" fill="#64748B" font-weight="600">1</text>
    <rect x="18" y="44" width="24" height="13" rx="3" fill="#22C55E"/><text x="30" y="54" fill="#fff" font-weight="800">VL</text>
    <rect x="48" y="44" width="24" height="13" rx="3" fill="#22C55E"/><text x="60" y="54" fill="#fff" font-weight="800">VL</text>
    <rect x="78" y="44" width="24" height="13" rx="3" fill="#84CC16"/><text x="90" y="54" fill="#fff" font-weight="800">L</text>
    <rect x="108" y="44" width="24" height="13" rx="3" fill="#F59E0B"/><text x="120" y="54" fill="#fff" font-weight="800">M</text>
    <rect x="138" y="44" width="24" height="13" rx="3" fill="#F97316"/><text x="150" y="54" fill="#fff" font-weight="800">H</text>
  </g>
  <text x="185" y="430" text-anchor="middle" fill="#64748B" font-size="9">Z = Z_MATRIX[X][Y] (5×5 동일 구조)</text>

  <!-- Level badges -->
  <rect x="330" y="318" width="230" height="125" rx="8" fill="#F1F5F9"/>
  <text x="445" y="336" text-anchor="middle" fill="#334155" font-size="11" font-weight="700">Level Colors &amp; Badges</text>
  <g transform="translate(345,346)">
    <rect x="0" y="0" width="42" height="18" rx="9" fill="#FEF2F2" stroke="#FECACA"/><text x="21" y="13" text-anchor="middle" fill="#EF4444" font-size="10" font-weight="800">VH</text>
    <rect x="48" y="0" width="34" height="18" rx="9" fill="#FFF7ED" stroke="#FED7AA"/><text x="65" y="13" text-anchor="middle" fill="#F97316" font-size="10" font-weight="800">H</text>
    <rect x="88" y="0" width="34" height="18" rx="9" fill="#FFFBEB" stroke="#FDE68A"/><text x="105" y="13" text-anchor="middle" fill="#F59E0B" font-size="10" font-weight="800">M</text>
    <rect x="128" y="0" width="30" height="18" rx="9" fill="#F7FEE7" stroke="#D9F99D"/><text x="143" y="13" text-anchor="middle" fill="#84CC16" font-size="10" font-weight="800">L</text>
    <rect x="164" y="0" width="36" height="18" rx="9" fill="#F0FDF4" stroke="#BBF7D0"/><text x="182" y="13" text-anchor="middle" fill="#22C55E" font-size="10" font-weight="800">VL</text>
  </g>
  <text x="445" y="385" text-anchor="middle" fill="#64748B" font-size="10">Y: 높을수록 통제 우수 (색상 반전)</text>
  <text x="445" y="400" text-anchor="middle" fill="#64748B" font-size="10">VH=녹색(통제 최고) ↔ VL=빨강(통제 없음)</text>
  <text x="445" y="420" text-anchor="middle" fill="#64748B" font-size="10">LEVEL_ORDER: VH=5 H=4 M=3 L=2 VL=1</text>

  <!-- Data Model -->
  <rect x="600" y="280" width="560" height="180" rx="14" fill="#fff" stroke="#E2E8F0" filter="url(#shadow)"/>
  <text x="620" y="306" fill="#1E293B" font-size="14" font-weight="800">🗃️ RISK Data Model</text>
  <g font-size="10" fill="#475569">
    <text x="620" y="326" font-weight="700" fill="#1D4ED8">Phase 1 — 식별</text>
    <text x="620" y="340">identifyOpinionType(이의없음/추가/수정/삭제) · identifyConfirmStatus(pending/accepted/rejected)</text>
    <text x="620" y="358" font-weight="700" fill="#7C3AED">Phase 2 — 평가</text>
    <text x="620" y="372">a_likelihood(1~5) · b_impact(1~5) · x_level(VL~VH) — xLevelFromMatrix()</text>
    <text x="620" y="390" font-weight="700" fill="#059669">Phase 3 — 통제진단</text>
    <text x="620" y="404">controlMeasure · controlMeasureStatus · y_level(VL~VH) · y_evalComment</text>
    <text x="620" y="422" font-weight="700" fill="#DC2626">Phase 4 — 잔여리스크</text>
    <text x="620" y="436">z_level(VL~VH) — zLevelFromMatrix() · z_selected(bool) · z_confirmedAt</text>
    <text x="620" y="454" font-weight="700" fill="#B45309">Phase 5~6 — 개선·이행</text>
    <text x="620" y="468">improvePlan · improvePlanStatus(확정/반려/제출완료/미제출) · achieve(0~100)</text>
  </g>

  <!-- ═══ ROW 3: 7-Phase Cycle ═══ -->
  <rect x="40" y="480" width="1120" height="250" rx="14" fill="url(#phaseGrad)" stroke="#BFDBFE" filter="url(#shadow)"/>
  <text x="600" y="508" text-anchor="middle" fill="#1E293B" font-size="15" font-weight="800">🔄 7-Phase Annual Cycle</text>

  <g transform="translate(55,525)">
    <!-- Phase 1 -->
    <rect x="0" y="0" width="148" height="88" rx="10" fill="#EFF6FF" stroke="#3B82F6" stroke-width="2"/>
    <text x="74" y="18" text-anchor="middle" fill="#1D4ED8" font-size="11" font-weight="800">Phase 1</text>
    <text x="74" y="32" text-anchor="middle" fill="#1D4ED8" font-size="10">리스크 식별</text>
    <text x="74" y="48" text-anchor="middle" fill="#64748B" font-size="9">엑셀 업로드 → 배당 메일</text>
    <text x="74" y="60" text-anchor="middle" fill="#64748B" font-size="9">현업 의견 → CP팀 확정</text>
    <text x="74" y="78" text-anchor="middle" fill="#3B82F6" font-size="8" font-weight="700">1~2월</text>

    <polygon points="155,44 167,44 167,39 178,47 167,55 167,50 155,50" fill="#93C5FD"/>

    <!-- Phase 2 -->
    <rect x="183" y="0" width="118" height="88" rx="10" fill="#F5F3FF" stroke="#7C3AED" stroke-width="2"/>
    <text x="242" y="18" text-anchor="middle" fill="#6D28D9" font-size="11" font-weight="800">Phase 2</text>
    <text x="242" y="32" text-anchor="middle" fill="#6D28D9" font-size="10">리스크 평가</text>
    <text x="242" y="48" text-anchor="middle" fill="#64748B" font-size="9">A(1~5) × B(1~5)</text>
    <text x="242" y="60" text-anchor="middle" fill="#64748B" font-size="9">→ X(VL~VH)</text>
    <text x="242" y="78" text-anchor="middle" fill="#7C3AED" font-size="8" font-weight="700">2~3월</text>

    <polygon points="308,44 320,44 320,39 331,47 320,55 320,50 308,50" fill="#C4B5FD"/>

    <!-- Phase 3 -->
    <rect x="336" y="0" width="128" height="88" rx="10" fill="#ECFDF5" stroke="#059669" stroke-width="2"/>
    <text x="400" y="18" text-anchor="middle" fill="#047857" font-size="11" font-weight="800">Phase 3</text>
    <text x="400" y="32" text-anchor="middle" fill="#047857" font-size="10">통제수준 진단</text>
    <text x="400" y="48" text-anchor="middle" fill="#64748B" font-size="9">현업: 통제수단 입력</text>
    <text x="400" y="60" text-anchor="middle" fill="#64748B" font-size="9">CP팀: Y → Z 자동</text>
    <text x="400" y="78" text-anchor="middle" fill="#059669" font-size="8" font-weight="700">3~4월</text>

    <polygon points="471,44 483,44 483,39 494,47 483,55 483,50 471,50" fill="#6EE7B7"/>

    <!-- Phase 4 -->
    <rect x="499" y="0" width="120" height="88" rx="10" fill="#FEF2F2" stroke="#EF4444" stroke-width="2"/>
    <text x="559" y="18" text-anchor="middle" fill="#DC2626" font-size="11" font-weight="800">Phase 4</text>
    <text x="559" y="32" text-anchor="middle" fill="#DC2626" font-size="10">잔여리스크 확정</text>
    <text x="559" y="48" text-anchor="middle" fill="#64748B" font-size="9">Z 기준 관리대상</text>
    <text x="559" y="60" text-anchor="middle" fill="#64748B" font-size="9">H·VH 선정 → 확정</text>
    <text x="559" y="78" text-anchor="middle" fill="#EF4444" font-size="8" font-weight="700">4~5월</text>

    <polygon points="626,44 638,44 638,39 649,47 638,55 638,50 626,50" fill="#FCA5A5"/>

    <!-- Phase 5 -->
    <rect x="654" y="0" width="128" height="88" rx="10" fill="#FFFBEB" stroke="#F59E0B" stroke-width="2"/>
    <text x="718" y="18" text-anchor="middle" fill="#B45309" font-size="11" font-weight="800">Phase 5</text>
    <text x="718" y="32" text-anchor="middle" fill="#B45309" font-size="10">개선방안 확정</text>
    <text x="718" y="48" text-anchor="middle" fill="#64748B" font-size="9">현업: 개선방안 제출</text>
    <text x="718" y="60" text-anchor="middle" fill="#64748B" font-size="9">CP팀: 확정/반려</text>
    <text x="718" y="78" text-anchor="middle" fill="#F59E0B" font-size="8" font-weight="700">5~6월</text>

    <polygon points="789,44 801,44 801,39 812,47 801,55 801,50 789,50" fill="#FDE68A"/>

    <!-- Phase 6-7 -->
    <rect x="817" y="0" width="250" height="88" rx="10" fill="#F1F5F9" stroke="#94A3B8" stroke-width="2"/>
    <text x="942" y="18" text-anchor="middle" fill="#475569" font-size="11" font-weight="800">Phase 6~7</text>
    <text x="942" y="32" text-anchor="middle" fill="#475569" font-size="10">이행 관리 · 점검 보고</text>
    <text x="870" y="50" fill="#64748B" font-size="9">확정 건만 이행 대상 (Phase 6 필터)</text>
    <text x="870" y="64" fill="#64748B" font-size="9">월간 달성율 입력 → 평가 → PPT 보고서</text>
    <text x="942" y="78" text-anchor="middle" fill="#64748B" font-size="8" font-weight="700">6~12월</text>
  </g>

  <!-- Completion conditions -->
  <g transform="translate(55,633)" font-size="8" fill="#64748B">
    <text x="74" y="0" text-anchor="middle" font-weight="700" fill="#1D4ED8">등록+메일+전수제출+검토</text>
    <text x="242" y="0" text-anchor="middle" font-weight="700" fill="#6D28D9">90% 평가 + H·VH 전수</text>
    <text x="400" y="0" text-anchor="middle" font-weight="700" fill="#047857">80% 입력 + Y 전수</text>
    <text x="559" y="0" text-anchor="middle" font-weight="700" fill="#DC2626">Z계산+선정+발송+확정</text>
    <text x="718" y="0" text-anchor="middle" font-weight="700" fill="#B45309">전수 제출 + 전수 확정</text>
    <text x="942" y="0" text-anchor="middle" font-weight="700" fill="#475569">60% 달성 + 보고서</text>
  </g>

  <!-- ═══ ROW 4: Navigation ═══ -->
  <rect x="40" y="660" width="540" height="310" rx="14" fill="#fff" stroke="#E2E8F0" filter="url(#shadow)"/>
  <text x="60" y="686" fill="#1E293B" font-size="14" font-weight="800">🧭 Navigation (Role-Based)</text>

  <!-- Admin -->
  <rect x="60" y="698" width="248" height="255" rx="10" fill="#F1F5F9"/>
  <text x="184" y="716" text-anchor="middle" fill="#1D4ED8" font-size="12" font-weight="800">🛡 CP팀 (Admin)</text>
  <g font-size="10" fill="#475569" transform="translate(74,728)">
    <text y="0" font-weight="700">▦ 전사 대시보드</text>
    <text y="15" font-weight="700">🔄 위험평가 진행 현황</text>
    <text y="28" fill="#94A3B8" font-size="9">  └ phase1~7 아코디언</text>
    <text y="42" font-weight="700" fill="#64748B">▼ 위험평가 작업 (접기)</text>
    <text y="56">  📋 ① 리스크 등록·관리</text>
    <text y="70">  ✅ ① 식별 의견 검토·확정</text>
    <text y="84">  🛡 ③ 통제효과성 평가</text>
    <text y="98">  🎯 ④ 잔여리스크 확정</text>
    <text y="112">  🔧 ⑤ 개선방안 확정</text>
    <text y="128" font-weight="700" fill="#64748B">이행 관리</text>
    <text y="142">  ⚖ 이행현황 검토 · 👥 팀 이행현황</text>
    <text y="158" font-weight="700" fill="#64748B">보고서·정보</text>
    <text y="172">  📊 보고서 · 📚 아카이브</text>
  </g>

  <!-- User -->
  <rect x="328" y="698" width="232" height="255" rx="10" fill="#F0FDF4"/>
  <text x="444" y="716" text-anchor="middle" fill="#059669" font-size="12" font-weight="800">👤 팀 담당자 (User)</text>
  <g font-size="10" fill="#475569" transform="translate(342,728)">
    <text y="0" font-weight="700">📈 내 팀 현황 (첫 화면)</text>
    <text y="13" fill="#059669" font-size="9">  └ 📌 할 일 알림 배너</text>
    <text y="30" font-weight="700" fill="#64748B">▼ 위험평가 작업 (접기)</text>
    <text y="44">  💬 ① 식별 의견 제출</text>
    <text y="58">  🔍 ③ 통제수단 입력</text>
    <text y="72">  📝 ⑤ 개선방안 제출</text>
    <text y="90" font-weight="700" fill="#64748B">▼ 이행 관리 (접기)</text>
    <text y="104">  📝 이행현황 입력</text>
    <text y="118">  📊 평가결과·이력</text>
    <text y="136" font-weight="700" fill="#64748B">정보</text>
    <text y="150">  📚 자료실</text>
    <text y="170" fill="#94A3B8" font-size="9">바텀탭: 💬의견 📝이행 📊이력 📈내팀</text>
  </g>

  <!-- ═══ ROW 4 right: Data Flow ═══ -->
  <rect x="600" y="660" width="560" height="310" rx="14" fill="#fff" stroke="#E2E8F0" filter="url(#shadow)"/>
  <text x="620" y="686" fill="#1E293B" font-size="14" font-weight="800">💾 Data Flow &amp; Storage</text>

  <rect x="620" y="703" width="150" height="44" rx="8" fill="#DBEAFE" stroke="#3B82F6"/>
  <text x="695" y="722" text-anchor="middle" fill="#1D4ED8" font-size="11" font-weight="700">SAMPLE_RISKS</text>
  <text x="695" y="736" text-anchor="middle" fill="#3B82F6" font-size="9">8건 하드코딩 (demo)</text>

  <rect x="790" y="703" width="150" height="44" rx="8" fill="#FEF3C7" stroke="#F59E0B"/>
  <text x="865" y="722" text-anchor="middle" fill="#92400E" font-size="11" font-weight="700">localStorage</text>
  <text x="865" y="736" text-anchor="middle" fill="#A16207" font-size="9">riskops_{y}_{m}_{id}</text>

  <rect x="960" y="703" width="180" height="44" rx="8" fill="#F3E8FF" stroke="#A855F7"/>
  <text x="1050" y="722" text-anchor="middle" fill="#7C3AED" font-size="11" font-weight="700">SharePoint REST</text>
  <text x="1050" y="736" text-anchor="middle" fill="#9333EA" font-size="9">OFFLINE_MODE=false 시</text>

  <!-- RISKS array -->
  <rect x="680" y="768" width="260" height="36" rx="8" fill="#1E293B"/>
  <text x="810" y="792" text-anchor="middle" fill="#fff" font-size="13" font-weight="800">RISKS[] (In-Memory)</text>

  <!-- Output boxes -->
  <rect x="620" y="824" width="150" height="32" rx="6" fill="#ECFDF5" stroke="#86EFAC"/>
  <text x="695" y="845" text-anchor="middle" fill="#059669" font-size="10" font-weight="700">render*() → UI</text>

  <rect x="785" y="824" width="150" height="32" rx="6" fill="#FEF3C7" stroke="#FCD34D"/>
  <text x="860" y="845" text-anchor="middle" fill="#92400E" font-size="10" font-weight="700">_lsSave() → LS</text>

  <rect x="950" y="824" width="150" height="32" rx="6" fill="#F3E8FF" stroke="#C084FC"/>
  <text x="1025" y="845" text-anchor="middle" fill="#7C3AED" font-size="10" font-weight="700">spPost() → SP</text>

  <!-- Power Automate -->
  <rect x="620" y="876" width="520" height="74" rx="8" fill="#FFF7ED" stroke="#FB923C"/>
  <text x="880" y="898" text-anchor="middle" fill="#C2410C" font-size="12" font-weight="800">⚡ Power Automate (callFlow) — 7 Flow URLs</text>
  <g font-size="9" fill="#EA580C" transform="translate(640,910)">
    <rect x="0" y="0" width="65" height="16" rx="4" fill="#FFEDD5"/><text x="32" y="12" text-anchor="middle">배당메일</text>
    <rect x="72" y="0" width="65" height="16" rx="4" fill="#FFEDD5"/><text x="104" y="12" text-anchor="middle">의견알림</text>
    <rect x="144" y="0" width="65" height="16" rx="4" fill="#FFEDD5"/><text x="176" y="12" text-anchor="middle">통제요청</text>
    <rect x="216" y="0" width="65" height="16" rx="4" fill="#FFEDD5"/><text x="248" y="12" text-anchor="middle">잔여확인</text>
    <rect x="288" y="0" width="65" height="16" rx="4" fill="#FFEDD5"/><text x="320" y="12" text-anchor="middle">개선알림</text>
    <rect x="360" y="0" width="55" height="16" rx="4" fill="#FFEDD5"/><text x="387" y="12" text-anchor="middle">제출</text>
    <rect x="422" y="0" width="55" height="16" rx="4" fill="#FFEDD5"/><text x="449" y="12" text-anchor="middle">독촉</text>
  </g>

  <!-- ═══ ROW 5: Key Pages ═══ -->
  <rect x="40" y="990" width="1120" height="200" rx="14" fill="#fff" stroke="#E2E8F0" filter="url(#shadow)"/>
  <text x="60" y="1016" fill="#1E293B" font-size="14" font-weight="800">📱 Key Pages (19 Views)</text>

  <!-- Admin row -->
  <text x="50" y="1040" fill="#1D4ED8" font-size="10" font-weight="700">Admin</text>
  <g transform="translate(80,1028)">
    <rect x="0" y="0" width="130" height="42" rx="6" fill="#EFF6FF" stroke="#BFDBFE"/>
    <text x="65" y="16" text-anchor="middle" fill="#1D4ED8" font-size="10" font-weight="700">대시보드</text>
    <text x="65" y="30" text-anchor="middle" fill="#64748B" font-size="8">KPI 4카드 · 히트맵5×5</text>

    <rect x="140" y="0" width="130" height="42" rx="6" fill="#F5F3FF" stroke="#DDD6FE"/>
    <text x="205" y="16" text-anchor="middle" fill="#6D28D9" font-size="10" font-weight="700">Master 3탭</text>
    <text x="205" y="30" text-anchor="middle" fill="#64748B" font-size="8">목록·AB평가·이력복원</text>

    <rect x="280" y="0" width="130" height="42" rx="6" fill="#ECFDF5" stroke="#BBF7D0"/>
    <text x="345" y="16" text-anchor="middle" fill="#059669" font-size="10" font-weight="700">식별 의견 검토</text>
    <text x="345" y="30" text-anchor="middle" fill="#64748B" font-size="8">필터탭·팀별현황·확정</text>

    <rect x="420" y="0" width="120" height="42" rx="6" fill="#ECFDF5" stroke="#BBF7D0"/>
    <text x="480" y="16" text-anchor="middle" fill="#059669" font-size="10" font-weight="700">통제효과성 평가</text>
    <text x="480" y="30" text-anchor="middle" fill="#64748B" font-size="8">Y버튼+Z미리보기</text>

    <rect x="550" y="0" width="120" height="42" rx="6" fill="#FEF2F2" stroke="#FECACA"/>
    <text x="610" y="16" text-anchor="middle" fill="#DC2626" font-size="10" font-weight="700">잔여리스크 확정</text>
    <text x="610" y="30" text-anchor="middle" fill="#64748B" font-size="8">매트릭스·2단계확정</text>

    <rect x="680" y="0" width="120" height="42" rx="6" fill="#FFFBEB" stroke="#FDE68A"/>
    <text x="740" y="16" text-anchor="middle" fill="#B45309" font-size="10" font-weight="700">개선방안 확정</text>
    <text x="740" y="30" text-anchor="middle" fill="#64748B" font-size="8">확정/반려·Phase5완료</text>

    <rect x="810" y="0" width="100" height="42" rx="6" fill="#F1F5F9" stroke="#CBD5E1"/>
    <text x="860" y="16" text-anchor="middle" fill="#475569" font-size="10" font-weight="700">보고서</text>
    <text x="860" y="30" text-anchor="middle" fill="#64748B" font-size="8">PPT 월간/연간</text>

    <rect x="920" y="0" width="120" height="42" rx="6" fill="#F1F5F9" stroke="#CBD5E1"/>
    <text x="980" y="16" text-anchor="middle" fill="#475569" font-size="10" font-weight="700">아카이브</text>
    <text x="980" y="30" text-anchor="middle" fill="#64748B" font-size="8">파일·법령·Copilot</text>
  </g>

  <!-- User row -->
  <text x="50" y="1102" fill="#059669" font-size="10" font-weight="700">User</text>
  <g transform="translate(80,1090)">
    <rect x="0" y="0" width="130" height="42" rx="6" fill="#F0FDF4" stroke="#86EFAC"/>
    <text x="65" y="16" text-anchor="middle" fill="#059669" font-size="10" font-weight="700">내 팀 현황</text>
    <text x="65" y="30" text-anchor="middle" fill="#64748B" font-size="8">할일알림·KPI·리스크</text>

    <rect x="140" y="0" width="130" height="42" rx="6" fill="#EFF6FF" stroke="#BFDBFE"/>
    <text x="205" y="16" text-anchor="middle" fill="#1D4ED8" font-size="10" font-weight="700">식별 의견 제출</text>
    <text x="205" y="30" text-anchor="middle" fill="#64748B" font-size="8">4유형칩+추가요청폼</text>

    <rect x="280" y="0" width="130" height="42" rx="6" fill="#ECFDF5" stroke="#BBF7D0"/>
    <text x="345" y="16" text-anchor="middle" fill="#059669" font-size="10" font-weight="700">통제수단 입력</text>
    <text x="345" y="30" text-anchor="middle" fill="#64748B" font-size="8">작년유지·Y기준참고</text>

    <rect x="420" y="0" width="120" height="42" rx="6" fill="#FFFBEB" stroke="#FDE68A"/>
    <text x="480" y="16" text-anchor="middle" fill="#B45309" font-size="10" font-weight="700">개선방안 제출</text>
    <text x="480" y="30" text-anchor="middle" fill="#64748B" font-size="8">반려재제출·통제참고</text>

    <rect x="550" y="0" width="120" height="42" rx="6" fill="#FEF3C7" stroke="#FCD34D"/>
    <text x="610" y="16" text-anchor="middle" fill="#92400E" font-size="10" font-weight="700">이행현황 입력</text>
    <text x="610" y="30" text-anchor="middle" fill="#64748B" font-size="8">확정건만·Phase6</text>

    <rect x="680" y="0" width="120" height="42" rx="6" fill="#F1F5F9" stroke="#CBD5E1"/>
    <text x="740" y="16" text-anchor="middle" fill="#475569" font-size="10" font-weight="700">평가결과·이력</text>
    <text x="740" y="30" text-anchor="middle" fill="#64748B" font-size="8">확정건만·월별이력</text>

    <rect x="810" y="0" width="100" height="42" rx="6" fill="#F1F5F9" stroke="#CBD5E1"/>
    <text x="860" y="16" text-anchor="middle" fill="#475569" font-size="10" font-weight="700">자료실</text>
    <text x="860" y="30" text-anchor="middle" fill="#64748B" font-size="8">내팀엑셀·스냅샷</text>
  </g>

  <!-- ═══ ROW 6: Tech Stack ═══ -->
  <rect x="40" y="1210" width="1120" height="70" rx="14" fill="#fff" stroke="#E2E8F0" filter="url(#shadow)"/>
  <text x="60" y="1236" fill="#1E293B" font-size="14" font-weight="800">🛠 Tech Stack</text>
  <g font-size="11" transform="translate(60,1250)">
    <rect x="0" y="0" width="90" height="22" rx="11" fill="#F1F5F9"/><text x="45" y="15" text-anchor="middle" fill="#475569" font-weight="700">Vanilla JS</text>
    <rect x="98" y="0" width="60" height="22" rx="11" fill="#F1F5F9"/><text x="128" y="15" text-anchor="middle" fill="#475569" font-weight="700">CSS3</text>
    <rect x="166" y="0" width="85" height="22" rx="11" fill="#F1F5F9"/><text x="208" y="15" text-anchor="middle" fill="#475569" font-weight="700">HTML5 SPA</text>
    <rect x="259" y="0" width="75" height="22" rx="11" fill="#DBEAFE"/><text x="296" y="15" text-anchor="middle" fill="#1D4ED8" font-weight="700">SheetJS</text>
    <rect x="342" y="0" width="90" height="22" rx="11" fill="#DBEAFE"/><text x="387" y="15" text-anchor="middle" fill="#1D4ED8" font-weight="700">PptxGenJS</text>
    <rect x="440" y="0" width="90" height="22" rx="11" fill="#F3E8FF"/><text x="485" y="15" text-anchor="middle" fill="#7C3AED" font-weight="700">SharePoint</text>
    <rect x="538" y="0" width="110" height="22" rx="11" fill="#FFF7ED"/><text x="593" y="15" text-anchor="middle" fill="#C2410C" font-weight="700">PowerAutomate</text>
    <rect x="656" y="0" width="95" height="22" rx="11" fill="#FEF3C7"/><text x="703" y="15" text-anchor="middle" fill="#92400E" font-weight="700">localStorage</text>
    <rect x="759" y="0" width="85" height="22" rx="11" fill="#ECFDF5"/><text x="801" y="15" text-anchor="middle" fill="#059669" font-weight="700">Canvas 2D</text>
    <rect x="852" y="0" width="100" height="22" rx="11" fill="#FEF2F2"/><text x="902" y="15" text-anchor="middle" fill="#DC2626" font-weight="700">Claude AI</text>
    <rect x="960" y="0" width="90" height="22" rx="11" fill="#F0FDF4"/><text x="1005" y="15" text-anchor="middle" fill="#059669" font-weight="700">Copilot</text>
  </g>

  <!-- Footer -->
  <text x="600" y="1310" text-anchor="middle" fill="#94A3B8" font-size="11">SK Chemical Compliance RiskOps v11.0 — Architecture Diagram — Updated 2026-03-25</text>
</svg>
