<svg xmlns="http://www.w3.org/2000/svg" viewBox="0 0 1320 1180" font-family="'Segoe UI', -apple-system, sans-serif">
  <defs>
    <filter id="shadow" x="-4%" y="-4%" width="108%" height="108%"><feDropShadow dx="0" dy="2" stdDeviation="4" flood-opacity="0.10"/></filter>
    <filter id="shadowLg" x="-4%" y="-4%" width="108%" height="112%"><feDropShadow dx="0" dy="4" stdDeviation="8" flood-opacity="0.12"/></filter>
    <linearGradient id="headerGrad" x1="0" y1="0" x2="1" y2="0"><stop offset="0%" stop-color="#1e3a5f"/><stop offset="100%" stop-color="#2563eb"/></linearGradient>
    <linearGradient id="spGrad" x1="0" y1="0" x2="0" y2="1"><stop offset="0%" stop-color="#0078d4"/><stop offset="100%" stop-color="#005a9e"/></linearGradient>
    <linearGradient id="paGrad" x1="0" y1="0" x2="0" y2="1"><stop offset="0%" stop-color="#742774"/><stop offset="100%" stop-color="#5c2d91"/></linearGradient>
    <linearGradient id="aiGrad" x1="0" y1="0" x2="0" y2="1"><stop offset="0%" stop-color="#d97706"/><stop offset="100%" stop-color="#b45309"/></linearGradient>
    <marker id="arr" viewBox="0 0 10 7" refX="10" refY="3.5" markerWidth="10" markerHeight="7" orient="auto-start-reverse"><path d="M0,0 L10,3.5 L0,7z" fill="#94a3b8"/></marker>
  </defs>

  <rect width="1320" height="1180" rx="16" fill="#f8fafc"/>

  <!-- Title -->
  <rect x="0" y="0" width="1320" height="64" rx="16" fill="url(#headerGrad)"/>
  <rect x="0" y="32" width="1320" height="32" fill="url(#headerGrad)"/>
  <text x="40" y="40" fill="white" font-size="20" font-weight="700">SK Chemical Compliance RiskOps Dashboard — Architecture v10.2</text>
  <text x="1280" y="40" fill="#93c5fd" font-size="13" text-anchor="end">index.html · 6,456 lines · 2026-03-21</text>

  <!-- ═══ LAYER 1: ADMIN FLOW ═══ -->
  <rect x="30" y="84" width="620" height="390" rx="14" fill="white" stroke="#3b82f6" stroke-width="1.5" filter="url(#shadowLg)"/>
  <rect x="30" y="84" width="620" height="34" rx="14" fill="#1e3a5f"/>
  <rect x="30" y="106" width="620" height="12" fill="#1e3a5f"/>
  <text x="340" y="106" text-anchor="middle" fill="white" font-size="13" font-weight="700">ADMIN (컴플라이언스팀)</text>

  <!-- Admin Pages -->
  <rect x="50" y="128" width="120" height="44" rx="7" fill="#dbeafe" stroke="#93c5fd"/>
  <text x="110" y="147" text-anchor="middle" fill="#1e40af" font-size="11" font-weight="700">전사 대시보드</text>
  <text x="110" y="162" text-anchor="middle" fill="#64748b" font-size="10">KPI · Phase뱃지</text>

  <rect x="180" y="128" width="120" height="44" rx="7" fill="#ede9fe" stroke="#c4b5fd"/>
  <text x="240" y="147" text-anchor="middle" fill="#5b21b6" font-size="11" font-weight="700">단계별 미션</text>
  <text x="240" y="162" text-anchor="middle" fill="#7c3aed" font-size="10">5단계 컨트롤</text>

  <rect x="310" y="128" width="120" height="44" rx="7" fill="#dbeafe" stroke="#93c5fd"/>
  <text x="370" y="147" text-anchor="middle" fill="#1e40af" font-size="11" font-weight="700">리스크 Master</text>
  <text x="370" y="162" text-anchor="middle" fill="#64748b" font-size="10">CRUD · 개선과제열</text>

  <rect x="440" y="128" width="120" height="44" rx="7" fill="#dbeafe" stroke="#93c5fd"/>
  <text x="500" y="147" text-anchor="middle" fill="#1e40af" font-size="11" font-weight="700">점검대상 선정</text>
  <text x="500" y="162" text-anchor="middle" fill="#64748b" font-size="10">퀵에딧 · 과제표시</text>

  <!-- Admin Review (통합) -->
  <rect x="50" y="182" width="280" height="56" rx="8" fill="#eff6ff" stroke="#3b82f6" stroke-width="1.5"/>
  <text x="190" y="202" text-anchor="middle" fill="#1e40af" font-size="13" font-weight="800">이행현황 검토 (통합)</text>
  <text x="190" y="220" text-anchor="middle" fill="#3b82f6" font-size="11">제출내용 읽기 + 평가 슬라이더 + 이의 검토</text>

  <rect x="340" y="182" width="120" height="56" rx="8" fill="#dbeafe" stroke="#93c5fd"/>
  <text x="400" y="206" text-anchor="middle" fill="#1e40af" font-size="11" font-weight="700">팀 이행현황</text>
  <text x="400" y="222" text-anchor="middle" fill="#64748b" font-size="10">Stat · Chart</text>

  <rect x="470" y="182" width="80" height="56" rx="8" fill="#dbeafe" stroke="#93c5fd"/>
  <text x="510" y="206" text-anchor="middle" fill="#1e40af" font-size="11" font-weight="700">보고서</text>
  <text x="510" y="222" text-anchor="middle" fill="#64748b" font-size="10">PPT Gen</text>

  <rect x="558" y="182" width="80" height="56" rx="8" fill="#fef3c7" stroke="#fbbf24"/>
  <text x="598" y="206" text-anchor="middle" fill="#92400e" font-size="11" font-weight="700">아카이브</text>
  <text x="598" y="222" text-anchor="middle" fill="#92400e" font-size="10">법령 · Copilot</text>

  <!-- Admin Review Detail -->
  <rect x="50" y="248" width="590" height="110" rx="10" fill="#f8fafc" stroke="#e2e8f0"/>
  <text x="70" y="268" fill="#334155" font-size="12" font-weight="700">이행현황 검토 상세 플로우</text>
  <rect x="65" y="280" width="100" height="30" rx="5" fill="#FEF2F2" stroke="#FECACA"/><text x="115" y="300" text-anchor="middle" fill="#DC2626" font-size="11" font-weight="600">미제출</text>
  <text x="175" y="300" fill="#94a3b8" font-size="14">→</text>
  <rect x="190" y="280" width="100" height="30" rx="5" fill="#FFFBEB" stroke="#FDE68A"/><text x="240" y="300" text-anchor="middle" fill="#D97706" font-size="11" font-weight="600">임시저장</text>
  <text x="300" y="300" fill="#94a3b8" font-size="14">→</text>
  <rect x="315" y="280" width="100" height="30" rx="5" fill="#EFF6FF" stroke="#93C5FD"/><text x="365" y="300" text-anchor="middle" fill="#2563EB" font-size="11" font-weight="600">제출완료</text>
  <text x="425" y="300" fill="#94a3b8" font-size="14">→</text>
  <rect x="440" y="280" width="90" height="30" rx="5" fill="#ECFDF5" stroke="#86EFAC"/><text x="485" y="300" text-anchor="middle" fill="#059669" font-size="11" font-weight="600">평가완료</text>

  <text x="70" y="330" fill="#64748b" font-size="11">미제출: 독촉 메일 · 임시저장: 내용 미리보기 · 제출완료: 내용 읽기 + 평가 슬라이더</text>
  <text x="70" y="348" fill="#7c3aed" font-size="11">이의신청: 사유 확인 → [수용: 점수 조정] / [기각: 점수 유지] + 검토 의견</text>

  <!-- Phase System -->
  <rect x="50" y="370" width="590" height="50" rx="8" fill="#f5f3ff" stroke="#c4b5fd"/>
  <text x="70" y="393" fill="#5b21b6" font-size="12" font-weight="700">Phase 미션 컨트롤</text>
  <text x="70" y="410" fill="#7c3aed" font-size="11">위험식별(1~2월) → 위험평가(3월) → 통제진단(3~4월) → 이행관리(5~9월) → 점검보고(10~12월)</text>

  <!-- ═══ LAYER 2: USER FLOW ═══ -->
  <rect x="670" y="84" width="620" height="390" rx="14" fill="white" stroke="#10b981" stroke-width="1.5" filter="url(#shadowLg)"/>
  <rect x="670" y="84" width="620" height="34" rx="14" fill="#166534"/>
  <rect x="670" y="106" width="620" height="12" fill="#166534"/>
  <text x="980" y="106" text-anchor="middle" fill="white" font-size="13" font-weight="700">USER (현업 담당자)</text>

  <!-- User Pages -->
  <rect x="690" y="128" width="280" height="44" rx="7" fill="#f0fdf4" stroke="#86efac" stroke-width="1.5"/>
  <text x="830" y="147" text-anchor="middle" fill="#166534" font-size="12" font-weight="800">이행현황 입력</text>
  <text x="830" y="162" text-anchor="middle" fill="#059669" font-size="10">배정 확인 → 매월 입력 → 제출</text>

  <rect x="980" y="128" width="150" height="44" rx="7" fill="#f0fdf4" stroke="#86efac"/>
  <text x="1055" y="147" text-anchor="middle" fill="#166534" font-size="11" font-weight="700">평가결과·이력</text>
  <text x="1055" y="162" text-anchor="middle" fill="#059669" font-size="10">결과 + 이의 + 월별 이력</text>

  <rect x="1140" y="128" width="136" height="44" rx="7" fill="#f0fdf4" stroke="#86efac"/>
  <text x="1208" y="147" text-anchor="middle" fill="#166534" font-size="11" font-weight="700">내 팀 · 아카이브</text>
  <text x="1208" y="162" text-anchor="middle" fill="#059609" font-size="10">KPI · 이전연도</text>

  <!-- User: 배정 확인 -->
  <rect x="690" y="182" width="280" height="90" rx="10" fill="#ECFDF5" stroke="#86EFAC"/>
  <text x="710" y="202" fill="#166534" font-size="12" font-weight="700">Step 1. 리스크 배정 확인</text>
  <text x="710" y="220" fill="#059669" font-size="11">좌: 배정 리스크 목록 (⬜미확인/✅확인/❌이의)</text>
  <text x="710" y="236" fill="#059669" font-size="11">우: 리스크 상세 (위험도 + 개선과제 + 담당자)</text>
  <text x="710" y="252" fill="#059669" font-size="11">[✓ 확인] / [이의제기] → 전체 확인 후 입력 활성</text>
  <text x="710" y="266" fill="#64748b" font-size="11">4단계 프로세스 안내 포함</text>

  <!-- User: 이행 입력 -->
  <rect x="690" y="282" width="280" height="70" rx="10" fill="#f0fdf4" stroke="#bbf7d0"/>
  <text x="710" y="302" fill="#166534" font-size="12" font-weight="700">Step 2. 매월 이행현황 입력</text>
  <text x="710" y="318" fill="#64748b" font-size="11">미제출 → 입력폼 / 제출완료 → 미리보기+[수정]</text>
  <text x="710" y="334" fill="#64748b" font-size="11">평가완료 → 결과 + [이의+수정] / [추가제출]</text>
  <text x="710" y="346" fill="#7c3aed" font-size="11">이의신청+수정 동시 제출 (submitWithRevision)</text>

  <!-- User: 평가결과 이력 -->
  <rect x="980" y="182" width="296" height="170" rx="10" fill="#f8fafc" stroke="#e2e8f0"/>
  <text x="1000" y="202" fill="#334155" font-size="12" font-weight="700">평가결과·이력 상세</text>
  <text x="1000" y="220" fill="#64748b" font-size="11">📌 개선과제 정보</text>
  <text x="1000" y="236" fill="#64748b" font-size="11">📝 이번달 제출 내용</text>
  <text x="1000" y="252" fill="#64748b" font-size="11">⚖ 평가 결과 (달성율 + 의견)</text>
  <text x="1000" y="268" fill="#D97706" font-size="11">⚠ 이의신청 상태 (검토중/수용/기각)</text>
  <text x="1000" y="284" fill="#64748b" font-size="11">📅 올해 월별 이력 (아코디언 펼침)</text>
  <text x="1020" y="302" fill="#94a3b8" font-size="11">1월 — 평가완료 78%  ▶ 클릭 시 내용</text>
  <text x="1020" y="316" fill="#94a3b8" font-size="11">2월 — 제출완료       ▶ 클릭 시 내용</text>
  <text x="1020" y="330" fill="#3b82f6" font-size="11">3월 — 평가완료 85%  ▶ 이번달</text>
  <text x="1020" y="346" fill="#94a3b8" font-size="11">4월 — (데이터 없음)</text>

  <!-- User: 이의신청 플로우 -->
  <rect x="690" y="362" width="590" height="56" rx="8" fill="#FFFBEB" stroke="#FDE68A"/>
  <text x="710" y="382" fill="#92400E" font-size="12" font-weight="700">이의신청 프로세스</text>
  <text x="710" y="400" fill="#A16207" font-size="11">현업: 내용 수정 + 사유 작성 → 제출 → 관리자: 사유 확인 → [수용: 점수 조정] / [기각: 점수 유지] → 현업: 결과 확인</text>
  <text x="710" y="414" fill="#64748b" font-size="11">수용 시 달성율 재계산 · 기각 시 검토 의견 전달 · 양방향 커뮤니케이션</text>

  <!-- ═══ LAYER 3: DATA / SERVICES ═══ -->
  <rect x="30" y="494" width="1260" height="190" rx="14" fill="white" stroke="#cbd5e1" stroke-width="1.5" filter="url(#shadow)"/>
  <text x="50" y="518" fill="#334155" font-size="13" font-weight="700">Data Layer &amp; External Services</text>

  <!-- OFFLINE_MODE -->
  <rect x="50" y="534" width="140" height="56" rx="8" fill="#fef9c3" stroke="#eab308" stroke-dasharray="6 3"/>
  <text x="120" y="557" text-anchor="middle" fill="#854d0e" font-size="11" font-weight="700">OFFLINE_MODE ?</text>
  <text x="120" y="580" text-anchor="middle" fill="#64748b" font-size="11">true / false</text>

  <!-- localStorage -->
  <rect x="210" y="534" width="200" height="130" rx="8" fill="#f0fdf4" stroke="#86efac"/>
  <text x="310" y="554" text-anchor="middle" fill="#166534" font-size="12" font-weight="700">localStorage</text>
  <text x="220" y="574" fill="#16a34a" font-size="11" font-family="monospace">riskops_{y}_{m}_{id}</text>
  <text x="220" y="592" fill="#7c3aed" font-size="11" font-family="monospace">riskops_phase_status</text>
  <text x="220" y="610" fill="#7c3aed" font-size="11" font-family="monospace">riskops_team_confirm</text>
  <text x="220" y="628" fill="#7c3aed" font-size="11" font-family="monospace">riskops_year_archive</text>
  <text x="220" y="648" fill="#64748b" font-size="11">Phase · 배정확인 · 연도아카이브</text>

  <!-- SP -->
  <rect x="430" y="534" width="200" height="130" rx="8" fill="#eff6ff" stroke="#3b82f6"/>
  <text x="530" y="554" text-anchor="middle" fill="#1e40af" font-size="12" font-weight="700">SharePoint Online</text>
  <rect x="445" y="564" width="76" height="22" rx="4" fill="#e0f2fe" stroke="#7dd3fc"/><text x="483" y="579" text-anchor="middle" fill="#0369a1" font-size="11">RiskMaster</text>
  <rect x="527" y="564" width="86" height="22" rx="4" fill="#e0f2fe" stroke="#7dd3fc"/><text x="570" y="579" text-anchor="middle" fill="#0369a1" font-size="11">MonthlyReport</text>
  <rect x="445" y="592" width="76" height="22" rx="4" fill="#e0f2fe" stroke="#7dd3fc"/><text x="483" y="607" text-anchor="middle" fill="#0369a1" font-size="11">Evaluation</text>
  <rect x="527" y="592" width="86" height="22" rx="4" fill="#fef2f2" stroke="#fca5a5" stroke-dasharray="4 2"/><text x="570" y="607" text-anchor="middle" fill="#dc2626" font-size="11">DocLib(미구현)</text>
  <text x="445" y="644" fill="#64748b" font-size="11">spGet · spPost · spPatch</text>
  <text x="445" y="660" fill="#64748b" font-size="11">Digest 25min · credentials:include</text>

  <!-- Power Automate -->
  <rect x="650" y="534" width="200" height="130" rx="8" fill="#f5f3ff" stroke="#c4b5fd"/>
  <text x="750" y="554" text-anchor="middle" fill="#5b21b6" font-size="12" font-weight="700">Power Automate</text>
  <text x="660" y="574" fill="#7c3aed" font-size="11">F-01 제출 · F-04 독촉</text>
  <text x="660" y="592" fill="#7c3aed" font-size="11">F-06 임시저장 · F-07 이의신청</text>
  <text x="660" y="610" fill="#dc2626" font-size="11">F-08 아카이브 (미구현)</text>
  <text x="660" y="628" fill="#dc2626" font-size="11">F-09 법령 수집 (미구현)</text>
  <text x="660" y="650" fill="#64748b" font-size="11">callFlow() · 15s timeout</text>

  <!-- AI -->
  <rect x="870" y="534" width="180" height="130" rx="8" fill="#fffbeb" stroke="#fcd34d"/>
  <text x="960" y="554" text-anchor="middle" fill="#92400e" font-size="12" font-weight="700">AI Services</text>
  <text x="880" y="574" fill="#b45309" font-size="11">Claude API (요약/평가의견)</text>
  <text x="880" y="592" fill="#b45309" font-size="11">Copilot Studio Agent</text>
  <text x="880" y="620" fill="#64748b" font-size="11">AI 이행 요약 · AI 평가 의견</text>
  <text x="880" y="638" fill="#64748b" font-size="11">법령 인사이트 챗봇</text>

  <!-- Refactoring -->
  <rect x="1070" y="534" width="200" height="130" rx="8" fill="#f0fdf4" stroke="#86efac"/>
  <text x="1170" y="554" text-anchor="middle" fill="#166534" font-size="12" font-weight="700">Code Status</text>
  <text x="1080" y="574" fill="#059669" font-size="11">v9.2/v9.3 → 원본 통합</text>
  <text x="1080" y="592" fill="#059609" font-size="11">v10.1 → 원본 통합</text>
  <text x="1080" y="610" fill="#7c3aed" font-size="11">v10.2 래핑 6개 유지</text>
  <text x="1080" y="628" fill="#64748b" font-size="11">navigateTo 1겹 · initDash 1겹</text>
  <text x="1080" y="646" fill="#64748b" font-size="11">6,456줄 · Vanilla JS</text>

  <!-- ═══ LAYER 4: PROCESS FLOW ═══ -->
  <rect x="30" y="704" width="1260" height="170" rx="14" fill="white" stroke="#c4b5fd" stroke-width="1.5" filter="url(#shadow)"/>
  <text x="50" y="728" fill="#5b21b6" font-size="13" font-weight="700">Compliance Risk Lifecycle — 연간 프로세스</text>

  <!-- Phase Timeline -->
  <rect x="50" y="742" width="170" height="54" rx="8" fill="#eff6ff" stroke="#93c5fd"/>
  <text x="135" y="762" text-anchor="middle" fill="#1e40af" font-size="12" font-weight="700">STEP 1 · 위험 식별</text>
  <text x="135" y="780" text-anchor="middle" fill="#64748b" font-size="11">1~2월 · 등록+배분+Owner</text>
  <line x1="222" y1="769" x2="240" y2="769" stroke="#c4b5fd" stroke-width="2" marker-end="url(#arr)"/>

  <rect x="242" y="742" width="170" height="54" rx="8" fill="#eff6ff" stroke="#93c5fd"/>
  <text x="327" y="762" text-anchor="middle" fill="#1e40af" font-size="12" font-weight="700">STEP 2 · 위험평가</text>
  <text x="327" y="780" text-anchor="middle" fill="#64748b" font-size="11">3월 · Score+선정</text>
  <line x1="414" y1="769" x2="432" y2="769" stroke="#c4b5fd" stroke-width="2" marker-end="url(#arr)"/>

  <rect x="434" y="742" width="170" height="54" rx="8" fill="#eff6ff" stroke="#93c5fd"/>
  <text x="519" y="762" text-anchor="middle" fill="#1e40af" font-size="12" font-weight="700">STEP 3 · 통제 진단</text>
  <text x="519" y="780" text-anchor="middle" fill="#64748b" font-size="11">3~4월 · 개선과제 입력</text>
  <line x1="606" y1="769" x2="624" y2="769" stroke="#c4b5fd" stroke-width="2" marker-end="url(#arr)"/>

  <rect x="626" y="742" width="220" height="54" rx="8" fill="#ecfdf5" stroke="#86efac" stroke-width="1.5"/>
  <text x="736" y="762" text-anchor="middle" fill="#166534" font-size="12" font-weight="700">STEP 4 · 이행 관리</text>
  <text x="736" y="780" text-anchor="middle" fill="#059669" font-size="11">5~9월 · 매월 입력→평가→이의</text>
  <line x1="848" y1="769" x2="866" y2="769" stroke="#c4b5fd" stroke-width="2" marker-end="url(#arr)"/>

  <rect x="868" y="742" width="170" height="54" rx="8" fill="#fffbeb" stroke="#fcd34d"/>
  <text x="953" y="762" text-anchor="middle" fill="#92400e" font-size="12" font-weight="700">STEP 5 · 점검·보고</text>
  <text x="953" y="780" text-anchor="middle" fill="#64748b" font-size="11">10~12월 · PPT+아카이빙</text>

  <!-- Monthly Cycle -->
  <text x="50" y="820" fill="#334155" font-size="12" font-weight="700">STEP 4 월간 사이클 (5~9월, 매월 반복)</text>
  <rect x="50" y="832" width="145" height="30" rx="6" fill="#f0fdf4" stroke="#bbf7d0"/>
  <text x="122" y="851" text-anchor="middle" fill="#166534" font-size="11" font-weight="600">배정 확인</text>
  <line x1="197" y1="847" x2="210" y2="847" stroke="#94a3b8" stroke-width="1.5" marker-end="url(#arr)"/>

  <rect x="212" y="832" width="145" height="30" rx="6" fill="#f0fdf4" stroke="#bbf7d0"/>
  <text x="284" y="851" text-anchor="middle" fill="#166534" font-size="11" font-weight="600">이행 입력·제출</text>
  <line x1="359" y1="847" x2="372" y2="847" stroke="#94a3b8" stroke-width="1.5" marker-end="url(#arr)"/>

  <rect x="374" y="832" width="145" height="30" rx="6" fill="#eff6ff" stroke="#93c5fd"/>
  <text x="446" y="851" text-anchor="middle" fill="#1e40af" font-size="11" font-weight="600">관리자 평가</text>
  <line x1="521" y1="847" x2="534" y2="847" stroke="#94a3b8" stroke-width="1.5" marker-end="url(#arr)"/>

  <rect x="536" y="832" width="145" height="30" rx="6" fill="#f0fdf4" stroke="#bbf7d0"/>
  <text x="608" y="851" text-anchor="middle" fill="#166534" font-size="11" font-weight="600">결과 확인</text>
  <line x1="683" y1="847" x2="696" y2="847" stroke="#94a3b8" stroke-width="1.5" marker-end="url(#arr)"/>

  <rect x="698" y="832" width="145" height="30" rx="6" fill="#FFFBEB" stroke="#FDE68A"/>
  <text x="770" y="851" text-anchor="middle" fill="#92400E" font-size="11" font-weight="600">이의신청 (선택)</text>
  <line x1="845" y1="847" x2="858" y2="847" stroke="#94a3b8" stroke-width="1.5" marker-end="url(#arr)"/>

  <rect x="860" y="832" width="145" height="30" rx="6" fill="#eff6ff" stroke="#93c5fd"/>
  <text x="932" y="851" text-anchor="middle" fill="#1e40af" font-size="11" font-weight="600">이의 검토·확정</text>

  <!-- ═══ LEGEND ═══ -->
  <rect x="30" y="894" width="1260" height="80" rx="12" fill="white" stroke="#e2e8f0" filter="url(#shadow)"/>
  <text x="60" y="920" fill="#334155" font-size="12" font-weight="700">Legend</text>
  <rect x="60" y="934" width="14" height="14" rx="3" fill="#dbeafe" stroke="#3b82f6"/><text x="82" y="946" fill="#334155" font-size="11">Admin 전용</text>
  <rect x="180" y="934" width="14" height="14" rx="3" fill="#f0fdf4" stroke="#86efac"/><text x="202" y="946" fill="#334155" font-size="11">User 전용</text>
  <rect x="290" y="934" width="14" height="14" rx="3" fill="#ede9fe" stroke="#c4b5fd"/><text x="312" y="946" fill="#334155" font-size="11">Phase System</text>
  <rect x="430" y="934" width="14" height="14" rx="3" fill="#FFFBEB" stroke="#FDE68A"/><text x="452" y="946" fill="#334155" font-size="11">이의신청</text>
  <rect x="550" y="934" width="14" height="14" rx="3" fill="#fef2f2" stroke="#f87171" stroke-dasharray="4 2"/><text x="572" y="946" fill="#334155" font-size="11">미구현 (SP)</text>
  <rect x="680" y="934" width="14" height="14" rx="3" fill="#fef9c3" stroke="#eab308" stroke-dasharray="6 3"/><text x="702" y="946" fill="#334155" font-size="11">CONFIG 분기</text>
  <text x="830" y="946" fill="#94a3b8" font-size="11">v10.2 · 6,456 lines · Monkey-patch 6 · Vanilla HTML/CSS/JS · CDN (SheetJS, PptxGenJS)</text>
</svg>