<svg xmlns="http://www.w3.org/2000/svg" viewBox="0 0 1280 1060" font-family="'Segoe UI', -apple-system, sans-serif">
  <defs>
    <filter id="shadow" x="-4%" y="-4%" width="108%" height="108%">
      <feDropShadow dx="0" dy="2" stdDeviation="4" flood-opacity="0.10"/>
    </filter>
    <filter id="shadowLg" x="-4%" y="-4%" width="108%" height="112%">
      <feDropShadow dx="0" dy="4" stdDeviation="8" flood-opacity="0.12"/>
    </filter>
    <linearGradient id="headerGrad" x1="0" y1="0" x2="1" y2="0">
      <stop offset="0%" stop-color="#1e3a5f"/>
      <stop offset="100%" stop-color="#2563eb"/>
    </linearGradient>
    <linearGradient id="spGrad" x1="0" y1="0" x2="0" y2="1">
      <stop offset="0%" stop-color="#0078d4"/>
      <stop offset="100%" stop-color="#005a9e"/>
    </linearGradient>
    <linearGradient id="paGrad" x1="0" y1="0" x2="0" y2="1">
      <stop offset="0%" stop-color="#742774"/>
      <stop offset="100%" stop-color="#5c2d91"/>
    </linearGradient>
    <linearGradient id="aiGrad" x1="0" y1="0" x2="0" y2="1">
      <stop offset="0%" stop-color="#d97706"/>
      <stop offset="100%" stop-color="#b45309"/>
    </linearGradient>
    <linearGradient id="phaseGrad" x1="0" y1="0" x2="1" y2="1">
      <stop offset="0%" stop-color="#2563eb"/>
      <stop offset="100%" stop-color="#7c3aed"/>
    </linearGradient>
    <marker id="arrow" viewBox="0 0 10 7" refX="10" refY="3.5" markerWidth="10" markerHeight="7" orient="auto-start-reverse">
      <path d="M0,0 L10,3.5 L0,7z" fill="#64748b"/>
    </marker>
    <marker id="arrowBlue" viewBox="0 0 10 7" refX="10" refY="3.5" markerWidth="10" markerHeight="7" orient="auto-start-reverse">
      <path d="M0,0 L10,3.5 L0,7z" fill="#2563eb"/>
    </marker>
    <marker id="arrowPurple" viewBox="0 0 10 7" refX="10" refY="3.5" markerWidth="10" markerHeight="7" orient="auto-start-reverse">
      <path d="M0,0 L10,3.5 L0,7z" fill="#7c3aed"/>
    </marker>
  </defs>

  <!-- Background -->
  <rect width="1280" height="1060" rx="16" fill="#f8fafc"/>

  <!-- Title Bar -->
  <rect x="0" y="0" width="1280" height="64" rx="16" fill="url(#headerGrad)"/>
  <rect x="0" y="32" width="1280" height="32" fill="url(#headerGrad)"/>
  <text x="40" y="40" fill="white" font-size="20" font-weight="700">SK Chemical Compliance RiskOps Dashboard — Architecture v10.2</text>
  <text x="1240" y="40" fill="#93c5fd" font-size="13" text-anchor="end">index.html · 5,402 lines · Refactored SPA</text>

  <!-- ============================================================ -->
  <!-- LAYER 1: Browser Client -->
  <!-- ============================================================ -->
  <rect x="30" y="84" width="1220" height="520" rx="14" fill="white" stroke="#cbd5e1" stroke-width="1.5" filter="url(#shadowLg)"/>
  <rect x="30" y="84" width="1220" height="38" rx="14" fill="#f1f5f9"/>
  <rect x="30" y="108" width="1220" height="14" fill="#f1f5f9"/>
  <circle cx="54" cy="103" r="6" fill="#f87171"/>
  <circle cx="74" cy="103" r="6" fill="#fbbf24"/>
  <circle cx="94" cy="103" r="6" fill="#34d399"/>
  <text x="640" y="108" text-anchor="middle" fill="#334155" font-size="14" font-weight="700">BROWSER CLIENT — index.html (Refactored Single-File SPA)</text>

  <!-- ── Code Structure ── -->
  <rect x="50" y="132" width="165" height="54" rx="8" fill="#eff6ff" stroke="#bfdbfe"/>
  <text x="132" y="155" text-anchor="middle" fill="#1e40af" font-size="12" font-weight="600">CSS (L33–595)</text>
  <text x="132" y="172" text-anchor="middle" fill="#64748b" font-size="10">563줄 · Tokens · 반응형</text>

  <rect x="225" y="132" width="165" height="54" rx="8" fill="#f0fdf4" stroke="#bbf7d0"/>
  <text x="307" y="155" text-anchor="middle" fill="#166534" font-size="12" font-weight="600">HTML (L596–1210)</text>
  <text x="307" y="172" text-anchor="middle" fill="#64748b" font-size="10">615줄 · Login · Shell</text>

  <rect x="400" y="132" width="195" height="54" rx="8" fill="#fefce8" stroke="#fef08a"/>
  <text x="497" y="155" text-anchor="middle" fill="#854d0e" font-size="12" font-weight="600">Base JS (L1211–4100)</text>
  <text x="497" y="172" text-anchor="middle" fill="#64748b" font-size="10">2,890줄 · 통합 완료 (v9+)</text>

  <rect x="605" y="132" width="195" height="54" rx="8" fill="#f5f3ff" stroke="#c4b5fd"/>
  <text x="702" y="155" text-anchor="middle" fill="#6b21a8" font-size="12" font-weight="600">Phase System (L4400–5400)</text>
  <text x="702" y="172" text-anchor="middle" fill="#64748b" font-size="10">1,000줄 · v10.2 · 래핑 5개</text>

  <rect x="810" y="132" width="165" height="54" rx="8" fill="#fdf4ff" stroke="#f0abfc"/>
  <text x="892" y="155" text-anchor="middle" fill="#86198f" font-size="12" font-weight="600">CDN Lazy-Load</text>
  <text x="892" y="172" text-anchor="middle" fill="#64748b" font-size="10">SheetJS · PptxGenJS</text>

  <rect x="985" y="132" width="245" height="54" rx="8" fill="#fff7ed" stroke="#fed7aa"/>
  <text x="1107" y="155" text-anchor="middle" fill="#9a3412" font-size="12" font-weight="600">Events &amp; Listeners (L4100–4400)</text>
  <text x="1107" y="172" text-anchor="middle" fill="#64748b" font-size="10">300줄 · Dirty·KB·Online·KPI</text>

  <!-- ── SPA Pages (10 pages) ── -->
  <text x="60" y="210" fill="#475569" font-size="12" font-weight="700">SPA Pages (navigateTo) — 10개 라우트</text>

  <rect x="50" y="222" width="108" height="48" rx="6" fill="#dbeafe" stroke="#93c5fd"/>
  <text x="104" y="242" text-anchor="middle" fill="#1e40af" font-size="11" font-weight="600">Dashboard</text>
  <text x="104" y="256" text-anchor="middle" fill="#64748b" font-size="10">KPI · Heatmap</text>

  <rect x="166" y="222" width="108" height="48" rx="6" fill="#ede9fe" stroke="#c4b5fd" stroke-width="1.5"/>
  <text x="220" y="242" text-anchor="middle" fill="#5b21b6" font-size="11" font-weight="700">Phase Mission</text>
  <text x="220" y="256" text-anchor="middle" fill="#7c3aed" font-size="10">NEW · 5단계 컨트롤</text>

  <rect x="282" y="222" width="108" height="48" rx="6" fill="#dbeafe" stroke="#93c5fd"/>
  <text x="336" y="242" text-anchor="middle" fill="#1e40af" font-size="11" font-weight="600">Monthly</text>
  <text x="336" y="256" text-anchor="middle" fill="#64748b" font-size="10">Submit · Draft</text>

  <rect x="398" y="222" width="108" height="48" rx="6" fill="#dbeafe" stroke="#93c5fd"/>
  <text x="452" y="242" text-anchor="middle" fill="#1e40af" font-size="11" font-weight="600">Evaluation</text>
  <text x="452" y="256" text-anchor="middle" fill="#64748b" font-size="10">Score · Comment</text>

  <rect x="514" y="222" width="108" height="48" rx="6" fill="#dbeafe" stroke="#93c5fd"/>
  <text x="568" y="242" text-anchor="middle" fill="#1e40af" font-size="11" font-weight="600">Teams</text>
  <text x="568" y="256" text-anchor="middle" fill="#64748b" font-size="10">Stat · Chart</text>

  <rect x="630" y="222" width="108" height="48" rx="6" fill="#dbeafe" stroke="#93c5fd"/>
  <text x="684" y="242" text-anchor="middle" fill="#1e40af" font-size="11" font-weight="600">Master</text>
  <text x="684" y="256" text-anchor="middle" fill="#64748b" font-size="10">CRUD · 개선과제열</text>

  <rect x="746" y="222" width="108" height="48" rx="6" fill="#dbeafe" stroke="#93c5fd"/>
  <text x="800" y="242" text-anchor="middle" fill="#1e40af" font-size="11" font-weight="600">Selection</text>
  <text x="800" y="256" text-anchor="middle" fill="#64748b" font-size="10">퀵에딧 · 과제표시</text>

  <rect x="862" y="222" width="108" height="48" rx="6" fill="#dbeafe" stroke="#93c5fd"/>
  <text x="916" y="242" text-anchor="middle" fill="#1e40af" font-size="11" font-weight="600">Reports</text>
  <text x="916" y="256" text-anchor="middle" fill="#64748b" font-size="10">PPT Gen</text>

  <rect x="978" y="222" width="108" height="48" rx="6" fill="#dbeafe" stroke="#93c5fd"/>
  <text x="1032" y="242" text-anchor="middle" fill="#1e40af" font-size="11" font-weight="600">My Team</text>
  <text x="1032" y="256" text-anchor="middle" fill="#64748b" font-size="10">KPI · Status</text>

  <rect x="1094" y="222" width="108" height="48" rx="6" fill="#fef3c7" stroke="#fbbf24"/>
  <text x="1148" y="242" text-anchor="middle" fill="#92400e" font-size="11" font-weight="600">Archive</text>
  <text x="1148" y="256" text-anchor="middle" fill="#92400e" font-size="10">Files · Law · AI</text>

  <!-- ── Phase Mission Control System (NEW) ── -->
  <rect x="50" y="285" width="580" height="100" rx="10" fill="#f5f3ff" stroke="#c4b5fd" stroke-width="1.5" filter="url(#shadow)"/>
  <text x="70" y="305" fill="#5b21b6" font-size="12" font-weight="700">Phase Mission Control System (v10.2)</text>

  <rect x="65" y="315" width="100" height="28" rx="5" fill="#ede9fe" stroke="#c4b5fd"/>
  <text x="115" y="334" text-anchor="middle" fill="#6b21a8" font-size="10" font-weight="600">Phase 상태</text>
  <rect x="175" y="315" width="100" height="28" rx="5" fill="#ede9fe" stroke="#c4b5fd"/>
  <text x="225" y="334" text-anchor="middle" fill="#6b21a8" font-size="10" font-weight="600">체크리스트</text>
  <rect x="285" y="315" width="100" height="28" rx="5" fill="#ede9fe" stroke="#c4b5fd"/>
  <text x="335" y="334" text-anchor="middle" fill="#6b21a8" font-size="10" font-weight="600">완료 확정</text>
  <rect x="395" y="315" width="100" height="28" rx="5" fill="#ede9fe" stroke="#c4b5fd"/>
  <text x="445" y="334" text-anchor="middle" fill="#6b21a8" font-size="10" font-weight="600">D-day 추적</text>
  <rect x="505" y="315" width="110" height="28" rx="5" fill="#ede9fe" stroke="#c4b5fd"/>
  <text x="560" y="334" text-anchor="middle" fill="#6b21a8" font-size="10" font-weight="600">의존성 검증</text>

  <text x="70" y="370" fill="#7c3aed" font-size="10">5단계: 위험식별(1~2월) → 위험평가(3월) → 통제진단(3~4월) → 이행관리(5~9월) → 점검보고(10~12월)</text>

  <!-- ── State + UI Components ── -->
  <rect x="650" y="285" width="280" height="100" rx="10" fill="#f8fafc" stroke="#e2e8f0"/>
  <text x="670" y="305" fill="#334155" font-size="12" font-weight="700">In-Memory State</text>
  <text x="670" y="324" fill="#64748b" font-size="11">RISKS[] · TEAMS_DATA[] · TREND[]</text>
  <text x="670" y="340" fill="#64748b" font-size="11">appRole · appTeam · curPage</text>
  <text x="670" y="356" fill="#64748b" font-size="11">curYear · curMonth · _hasDirtyForm</text>
  <text x="670" y="372" fill="#7c3aed" font-size="11">PHASE_LS_KEY · _archiveFiles[]</text>

  <rect x="950" y="285" width="280" height="100" rx="10" fill="#f8fafc" stroke="#e2e8f0"/>
  <text x="970" y="305" fill="#334155" font-size="12" font-weight="700">UI Components</text>
  <text x="970" y="324" fill="#64748b" font-size="11">toast() · showConfirmModal()</text>
  <text x="970" y="340" fill="#64748b" font-size="11">showLoading() · drawChart() · _esc()</text>
  <text x="970" y="356" fill="#64748b" font-size="11">openTaskQuickEdit() · showKpiDrilldown()</text>
  <text x="970" y="372" fill="#7c3aed" font-size="11">renderPhaseControl() · previewPhase()</text>

  <!-- ── Data Layer ── -->
  <text x="60" y="410" fill="#475569" font-size="12" font-weight="700">Data Access Layer</text>

  <!-- OFFLINE_MODE switch -->
  <rect x="50" y="422" width="160" height="60" rx="8" fill="#fef9c3" stroke="#eab308" stroke-width="1.5" stroke-dasharray="6 3"/>
  <text x="130" y="445" text-anchor="middle" fill="#854d0e" font-size="11" font-weight="700">OFFLINE_MODE ?</text>
  <text x="90" y="474" text-anchor="middle" fill="#65a30d" font-size="11" font-weight="600">true</text>
  <text x="170" y="474" text-anchor="middle" fill="#dc2626" font-size="11" font-weight="600">false</text>

  <!-- Offline path -->
  <rect x="50" y="492" width="160" height="60" rx="8" fill="#f0fdf4" stroke="#86efac" stroke-width="1.5"/>
  <text x="130" y="512" text-anchor="middle" fill="#166534" font-size="11" font-weight="600">Offline Mode</text>
  <text x="130" y="528" text-anchor="middle" fill="#16a34a" font-size="10">SAMPLE + localStorage</text>
  <text x="130" y="544" text-anchor="middle" fill="#64748b" font-size="10">_lsSave / _lsLoad</text>

  <!-- SP Helpers -->
  <rect x="240" y="422" width="300" height="60" rx="8" fill="#eff6ff" stroke="#3b82f6" stroke-width="1.5"/>
  <text x="390" y="442" text-anchor="middle" fill="#1e40af" font-size="11" font-weight="700">SharePoint REST API Helpers</text>
  <text x="390" y="462" text-anchor="middle" fill="#2563eb" font-size="10">spGetDigest() · spGet() · spPost() · spPatch()</text>
  <text x="390" y="476" text-anchor="middle" fill="#94a3b8" font-size="10">Digest 25min cache · credentials:include</text>

  <!-- _loadSPData -->
  <rect x="240" y="492" width="140" height="60" rx="8" fill="#dbeafe" stroke="#60a5fa"/>
  <text x="310" y="512" text-anchor="middle" fill="#1e40af" font-size="11" font-weight="600">_loadSPData()</text>
  <text x="310" y="528" text-anchor="middle" fill="#3b82f6" font-size="10">3 Lists 조회</text>
  <text x="310" y="544" text-anchor="middle" fill="#3b82f6" font-size="10">+ Trend 계산</text>

  <!-- callFlow -->
  <rect x="390" y="492" width="150" height="60" rx="8" fill="#f3e8ff" stroke="#c084fc"/>
  <text x="465" y="512" text-anchor="middle" fill="#6b21a8" font-size="11" font-weight="600">callFlow()</text>
  <text x="465" y="528" text-anchor="middle" fill="#7c3aed" font-size="10">F-01/04/06/07</text>
  <text x="465" y="544" text-anchor="middle" fill="#7c3aed" font-size="10">15s timeout</text>

  <!-- Phase Status Storage -->
  <rect x="570" y="422" width="200" height="60" rx="8" fill="#f5f3ff" stroke="#c4b5fd" stroke-width="1.5"/>
  <text x="670" y="442" text-anchor="middle" fill="#5b21b6" font-size="11" font-weight="700">Phase Status Storage</text>
  <text x="670" y="462" text-anchor="middle" fill="#7c3aed" font-size="10">_loadPhaseStatus(year)</text>
  <text x="670" y="476" text-anchor="middle" fill="#7c3aed" font-size="10">_savePhaseStatus(year, id, data)</text>

  <!-- Year Archive -->
  <rect x="570" y="492" width="200" height="60" rx="8" fill="#f5f3ff" stroke="#c4b5fd"/>
  <text x="670" y="512" text-anchor="middle" fill="#5b21b6" font-size="11" font-weight="600">Year Archive</text>
  <text x="670" y="528" text-anchor="middle" fill="#7c3aed" font-size="10">연도 전환 자동 아카이빙</text>
  <text x="670" y="544" text-anchor="middle" fill="#7c3aed" font-size="10">riskops_year_archive</text>

  <!-- File ops (NOT IMPLEMENTED) -->
  <rect x="800" y="422" width="200" height="60" rx="8" fill="#fef2f2" stroke="#f87171" stroke-width="1.5" stroke-dasharray="6 3"/>
  <text x="900" y="445" text-anchor="middle" fill="#dc2626" font-size="11" font-weight="700">File Upload/Download</text>
  <text x="900" y="462" text-anchor="middle" fill="#ef4444" font-size="10">Archive · Attachments</text>
  <text x="900" y="476" text-anchor="middle" fill="#dc2626" font-size="10" font-weight="600">NOT IMPLEMENTED</text>

  <!-- Auth -->
  <rect x="800" y="492" width="200" height="60" rx="8" fill="#f8fafc" stroke="#cbd5e1"/>
  <text x="900" y="512" text-anchor="middle" fill="#334155" font-size="11" font-weight="700">Auth &amp; Dependency</text>
  <text x="900" y="528" text-anchor="middle" fill="#64748b" font-size="10">Admin: 10 pages · User: 3</text>
  <text x="900" y="544" text-anchor="middle" fill="#7c3aed" font-size="10">Phase 의존성 경고</text>

  <!-- Refactoring Status -->
  <rect x="1030" y="422" width="200" height="130" rx="8" fill="#f0fdf4" stroke="#86efac" filter="url(#shadow)"/>
  <text x="1130" y="445" text-anchor="middle" fill="#166534" font-size="12" font-weight="700">Refactoring Status</text>
  <text x="1050" y="468" fill="#059669" font-size="11">v9.2/v9.3 → 원본 통합</text>
  <text x="1050" y="486" fill="#059669" font-size="11">v10.1 → 원본 통합</text>
  <text x="1050" y="504" fill="#7c3aed" font-size="11">v10.2 래핑 5개 유지</text>
  <text x="1050" y="522" fill="#64748b" font-size="11">navigateTo: 1겹 (3→1)</text>
  <text x="1050" y="540" fill="#64748b" font-size="11">initDash: 1겹 (2→1)</text>

  <!-- ============================================================ -->
  <!-- LAYER 2: External Services -->
  <!-- ============================================================ -->
  <text x="40" y="630" fill="#334155" font-size="14" font-weight="700">External Services</text>

  <!-- SharePoint Online -->
  <rect x="30" y="648" width="300" height="150" rx="12" fill="white" stroke="#0078d4" stroke-width="2" filter="url(#shadow)"/>
  <rect x="30" y="648" width="300" height="34" rx="12" fill="url(#spGrad)"/>
  <rect x="30" y="670" width="300" height="12" fill="url(#spGrad)"/>
  <text x="180" y="670" text-anchor="middle" fill="white" font-size="13" font-weight="700">SharePoint Online</text>
  <text x="50" y="700" fill="#0078d4" font-size="11" font-weight="600">Lists (REST API)</text>
  <rect x="50" y="708" width="80" height="24" rx="4" fill="#e0f2fe" stroke="#7dd3fc"/>
  <text x="90" y="724" text-anchor="middle" fill="#0369a1" font-size="10">RiskMaster</text>
  <rect x="138" y="708" width="86" height="24" rx="4" fill="#e0f2fe" stroke="#7dd3fc"/>
  <text x="181" y="724" text-anchor="middle" fill="#0369a1" font-size="10">MonthlyReport</text>
  <rect x="232" y="708" width="78" height="24" rx="4" fill="#e0f2fe" stroke="#7dd3fc"/>
  <text x="271" y="724" text-anchor="middle" fill="#0369a1" font-size="10">Evaluation</text>
  <text x="50" y="754" fill="#0078d4" font-size="11" font-weight="600">Document Library</text>
  <rect x="50" y="762" width="120" height="22" rx="4" fill="#fef2f2" stroke="#fca5a5" stroke-dasharray="4 2"/>
  <text x="110" y="777" text-anchor="middle" fill="#dc2626" font-size="10">Archive (미구현)</text>
  <rect x="178" y="762" width="130" height="22" rx="4" fill="#fef2f2" stroke="#fca5a5" stroke-dasharray="4 2"/>
  <text x="243" y="777" text-anchor="middle" fill="#dc2626" font-size="10">Attachments (미구현)</text>

  <!-- Power Automate -->
  <rect x="360" y="648" width="280" height="150" rx="12" fill="white" stroke="#742774" stroke-width="2" filter="url(#shadow)"/>
  <rect x="360" y="648" width="280" height="34" rx="12" fill="url(#paGrad)"/>
  <rect x="360" y="670" width="280" height="12" fill="url(#paGrad)"/>
  <text x="500" y="670" text-anchor="middle" fill="white" font-size="13" font-weight="700">Power Automate (Flows)</text>
  <rect x="380" y="694" width="115" height="28" rx="5" fill="#f5f3ff" stroke="#c4b5fd"/>
  <text x="437" y="712" text-anchor="middle" fill="#5b21b6" font-size="10" font-weight="600">F-01 Submit</text>
  <rect x="505" y="694" width="115" height="28" rx="5" fill="#f5f3ff" stroke="#c4b5fd"/>
  <text x="562" y="712" text-anchor="middle" fill="#5b21b6" font-size="10" font-weight="600">F-04 Nudge</text>
  <rect x="380" y="730" width="115" height="28" rx="5" fill="#f5f3ff" stroke="#c4b5fd"/>
  <text x="437" y="748" text-anchor="middle" fill="#5b21b6" font-size="10" font-weight="600">F-06 Draft</text>
  <rect x="505" y="730" width="115" height="28" rx="5" fill="#f5f3ff" stroke="#c4b5fd"/>
  <text x="562" y="748" text-anchor="middle" fill="#5b21b6" font-size="10" font-weight="600">F-07 Revision</text>
  <text x="500" y="788" text-anchor="middle" fill="#94a3b8" font-size="10">HTTP Trigger → SP Update → Email</text>

  <!-- AI / Copilot -->
  <rect x="670" y="648" width="220" height="150" rx="12" fill="white" stroke="#d97706" stroke-width="2" filter="url(#shadow)"/>
  <rect x="670" y="648" width="220" height="34" rx="12" fill="url(#aiGrad)"/>
  <rect x="670" y="670" width="220" height="12" fill="url(#aiGrad)"/>
  <text x="780" y="670" text-anchor="middle" fill="white" font-size="13" font-weight="700">AI Services</text>
  <rect x="690" y="694" width="180" height="28" rx="5" fill="#fffbeb" stroke="#fcd34d"/>
  <text x="780" y="712" text-anchor="middle" fill="#92400e" font-size="11" font-weight="600">Claude API (Summary)</text>
  <rect x="690" y="730" width="180" height="28" rx="5" fill="#fffbeb" stroke="#fcd34d"/>
  <text x="780" y="748" text-anchor="middle" fill="#92400e" font-size="11" font-weight="600">Copilot Studio Agent</text>
  <text x="780" y="788" text-anchor="middle" fill="#94a3b8" font-size="10">AI 요약 · AI 평가의견 · Chatbot</text>

  <!-- localStorage -->
  <rect x="920" y="648" width="200" height="150" rx="12" fill="white" stroke="#16a34a" stroke-width="2" filter="url(#shadow)"/>
  <rect x="920" y="648" width="200" height="34" rx="12" fill="#16a34a"/>
  <rect x="920" y="670" width="200" height="12" fill="#16a34a"/>
  <text x="1020" y="670" text-anchor="middle" fill="white" font-size="13" font-weight="700">localStorage</text>
  <text x="940" y="700" fill="#166534" font-size="11" font-weight="600">Data Keys:</text>
  <text x="940" y="718" fill="#16a34a" font-size="10" font-family="monospace">riskops_{y}_{m}_{id}</text>
  <text x="940" y="738" fill="#166534" font-size="11" font-weight="600">Phase Keys:</text>
  <text x="940" y="756" fill="#7c3aed" font-size="10" font-family="monospace">riskops_phase_status</text>
  <text x="940" y="774" fill="#7c3aed" font-size="10" font-family="monospace">riskops_year_archive</text>

  <!-- ============================================================ -->
  <!-- LAYER 3: Phase Lifecycle -->
  <!-- ============================================================ -->
  <rect x="30" y="820" width="1220" height="100" rx="12" fill="white" stroke="#c4b5fd" stroke-width="1.5" filter="url(#shadow)"/>
  <text x="50" y="845" fill="#5b21b6" font-size="13" font-weight="700">Phase Lifecycle — 5-Step Compliance Risk Cycle</text>

  <!-- Phase 1 -->
  <rect x="50" y="858" width="210" height="48" rx="8" fill="#eff6ff" stroke="#93c5fd"/>
  <text x="155" y="876" text-anchor="middle" fill="#1e40af" font-size="11" font-weight="700">STEP 1 · 위험 식별·분석</text>
  <text x="155" y="898" text-anchor="middle" fill="#64748b" font-size="10">1~2월 · 등록 + 팀 배분 + Owner</text>

  <!-- Arrow -->
  <line x1="262" y1="882" x2="278" y2="882" stroke="#c4b5fd" stroke-width="2" marker-end="url(#arrowPurple)"/>

  <!-- Phase 2 -->
  <rect x="280" y="858" width="190" height="48" rx="8" fill="#eff6ff" stroke="#93c5fd"/>
  <text x="375" y="876" text-anchor="middle" fill="#1e40af" font-size="11" font-weight="700">STEP 2 · 위험평가</text>
  <text x="375" y="898" text-anchor="middle" fill="#64748b" font-size="10">3월 · Score + 선정</text>

  <line x1="472" y1="882" x2="488" y2="882" stroke="#c4b5fd" stroke-width="2" marker-end="url(#arrowPurple)"/>

  <!-- Phase 3 -->
  <rect x="490" y="858" width="210" height="48" rx="8" fill="#eff6ff" stroke="#93c5fd"/>
  <text x="595" y="876" text-anchor="middle" fill="#1e40af" font-size="11" font-weight="700">STEP 3 · 통제수준 진단</text>
  <text x="595" y="898" text-anchor="middle" fill="#64748b" font-size="10">3~4월 · 개선과제 입력</text>

  <line x1="702" y1="882" x2="718" y2="882" stroke="#c4b5fd" stroke-width="2" marker-end="url(#arrowPurple)"/>

  <!-- Phase 4 -->
  <rect x="720" y="858" width="210" height="48" rx="8" fill="#ecfdf5" stroke="#86efac"/>
  <text x="825" y="876" text-anchor="middle" fill="#166534" font-size="11" font-weight="700">STEP 4 · 개선방안 이행</text>
  <text x="825" y="898" text-anchor="middle" fill="#64748b" font-size="10">5~9월 · 달성율 60%↑</text>

  <line x1="932" y1="882" x2="948" y2="882" stroke="#c4b5fd" stroke-width="2" marker-end="url(#arrowPurple)"/>

  <!-- Phase 5 -->
  <rect x="950" y="858" width="210" height="48" rx="8" fill="#fffbeb" stroke="#fcd34d"/>
  <text x="1055" y="876" text-anchor="middle" fill="#92400e" font-size="11" font-weight="700">STEP 5 · 점검·보고</text>
  <text x="1055" y="898" text-anchor="middle" fill="#64748b" font-size="10">10~12월 · PPT + 아카이빙</text>

  <!-- ============================================================ -->
  <!-- LEGEND -->
  <!-- ============================================================ -->
  <rect x="30" y="938" width="1220" height="110" rx="12" fill="white" stroke="#e2e8f0" filter="url(#shadow)"/>
  <text x="60" y="965" fill="#334155" font-size="13" font-weight="700">Legend</text>

  <rect x="60" y="978" width="16" height="16" rx="3" fill="#dbeafe" stroke="#3b82f6" stroke-width="1.5"/>
  <text x="84" y="991" fill="#334155" font-size="11">SP 연동 준비 완료</text>

  <rect x="230" y="978" width="16" height="16" rx="3" fill="#f5f3ff" stroke="#c4b5fd" stroke-width="1.5"/>
  <text x="254" y="991" fill="#334155" font-size="11">Phase 시스템 (v10.2 NEW)</text>

  <rect x="440" y="978" width="16" height="16" rx="3" fill="#fef2f2" stroke="#f87171" stroke-width="1.5" stroke-dasharray="4 2"/>
  <text x="464" y="991" fill="#334155" font-size="11">미구현 (SP 연동 필요)</text>

  <rect x="640" y="978" width="16" height="16" rx="3" fill="#f0fdf4" stroke="#86efac" stroke-width="1.5"/>
  <text x="664" y="991" fill="#334155" font-size="11">오프라인 / 리팩토링 완료</text>

  <rect x="860" y="978" width="16" height="16" rx="3" fill="#fef9c3" stroke="#eab308" stroke-width="1.5" stroke-dasharray="6 3"/>
  <text x="884" y="991" fill="#334155" font-size="11">CONFIG 분기점</text>

  <!-- Version info -->
  <text x="60" y="1035" fill="#94a3b8" font-size="11">v10.2 · Refactored SPA · 5,402 lines · Monkey-patch 18→5 · Vanilla HTML/CSS/JS · CDN (SheetJS, PptxGenJS)</text>
  <text x="1220" y="1035" text-anchor="end" fill="#94a3b8" font-size="11">2026-03-21</text>
</svg>